<svg width="28" height="28" viewBox="0 0 28 28" fill="none" xmlns="http://www.w3.org/2000/svg">
<g clip-path="url(#clip0_115_2525)">
<path d="M13.545 20.265L8.50501 14L13.7317 7.7467C13.8297 7.62873 13.9036 7.4926 13.949 7.34609C13.9945 7.19957 14.0106 7.04554 13.9965 6.89279C13.9824 6.74004 13.9384 6.59155 13.8669 6.45582C13.7955 6.32008 13.698 6.19975 13.58 6.1017C13.462 6.00365 13.3259 5.92979 13.1794 5.88434C13.0329 5.8389 12.8788 5.82276 12.7261 5.83684C12.5733 5.85093 12.4249 5.89496 12.2891 5.96643C12.1534 6.03789 12.0331 6.1354 11.935 6.25337L6.10167 13.2534C5.93008 13.4621 5.83627 13.724 5.83627 13.9942C5.83627 14.2644 5.93008 14.5263 6.10167 14.735L11.7367 21.735C11.833 21.8549 11.952 21.9545 12.0869 22.0282C12.2218 22.1019 12.3699 22.1482 12.5228 22.1645C12.6757 22.1808 12.8302 22.1667 12.9776 22.123C13.125 22.0793 13.2623 22.0069 13.3817 21.91C13.5007 21.8129 13.5993 21.6933 13.6719 21.5579C13.7446 21.4226 13.7898 21.2743 13.805 21.1215C13.8201 20.9686 13.805 20.8143 13.7604 20.6673C13.7158 20.5204 13.6426 20.3836 13.545 20.265Z" fill="#333333"/>
<path d="M14.2684 13.2534C14.0968 13.4621 14.003 13.724 14.003 13.9942C14.003 14.2644 14.0968 14.5263 14.2684 14.735L19.9034 21.735C19.9997 21.8549 20.1187 21.9545 20.2536 22.0282C20.3885 22.1019 20.5367 22.1482 20.6895 22.1645C20.8424 22.1808 20.997 22.1667 21.1444 22.123C21.2918 22.0793 21.4291 22.0069 21.5484 21.91C21.6683 21.8138 21.7679 21.6947 21.8416 21.5598C21.9153 21.4249 21.9616 21.2768 21.9779 21.1239C21.9941 20.971 21.98 20.8165 21.9364 20.6691C21.8927 20.5217 21.8203 20.3844 21.7234 20.265L16.6718 14L21.8984 7.7467C22.0964 7.50845 22.1917 7.20129 22.1633 6.89279C22.1348 6.5843 21.985 6.29973 21.7468 6.1017C21.5085 5.90368 21.2013 5.8084 20.8928 5.83685C20.5843 5.86529 20.2998 6.01512 20.1018 6.25337L14.2684 13.2534Z" fill="#333333"/>
</g>
<defs>
<clipPath id="clip0_115_2525">
<rect width="28" height="28" fill="white" transform="translate(28) rotate(90)"/>
</clipPath>
</defs>
</svg>
