<svg width="23" height="28" viewBox="0 0 23 28" fill="none" xmlns="http://www.w3.org/2000/svg">
<g clip-path="url(#clip0_115_2244)">
<path fill-rule="evenodd" clip-rule="evenodd" d="M19.6305 6.86411L18.009 8.42686C19.665 10.0339 20.7 12.2506 20.7 14.7C20.7 19.5988 16.583 23.5667 11.5 23.5667C6.417 23.5667 2.3 19.5988 2.3 14.7C2.3 10.178 5.8075 6.45403 10.35 5.91095V8.14978C7.084 8.68178 4.6 11.4083 4.6 14.7C4.6 18.3686 7.6935 21.35 11.5 21.35C15.3065 21.35 18.4 18.3686 18.4 14.7C18.4 12.8602 17.6295 11.1977 16.376 10.0007L14.7545 11.5634C15.5825 12.3725 16.1 13.4809 16.1 14.7C16.1 17.1494 14.0415 19.1333 11.5 19.1333C8.9585 19.1333 6.9 17.1494 6.9 14.7C6.9 12.6385 8.372 10.9206 10.35 10.4219V12.7937C9.66 13.1816 9.2 13.8799 9.2 14.7C9.2 15.9192 10.235 16.9167 11.5 16.9167C12.765 16.9167 13.8 15.9192 13.8 14.7C13.8 13.8799 13.34 13.1705 12.65 12.7937V3.6167H11.5C5.152 3.6167 0 8.58203 0 14.7C0 20.818 5.152 25.7833 11.5 25.7833C17.848 25.7833 23 20.818 23 14.7C23 11.641 21.712 8.87019 19.6305 6.86411Z" fill="#9B9B9B"/>
</g>
<defs>
<clipPath id="clip0_115_2244">
<rect width="23" height="28" fill="white"/>
</clipPath>
</defs>
</svg>
