<svg width="20" height="20" viewBox="0 0 20 20" fill="none" xmlns="http://www.w3.org/2000/svg">
<path d="M16.2695 1.85547C15.1367 0.618477 13.3984 0 11.0547 0H2.03125V20H6.40625V13.5938H11.0547C12.2526 13.5938 13.3138 13.3789 14.2383 12.9492C15.1628 12.5195 15.8854 11.9401 16.4062 11.2109C16.9271 10.4818 17.3177 9.71352 17.5781 8.90625C17.8386 8.09895 17.9688 7.26562 17.9688 6.40625C17.9688 4.60938 17.4023 3.09246 16.2695 1.85547ZM12.6953 8.98438C12.0182 9.40105 11.0677 9.60938 9.84375 9.60938H6.40625V3.59375H9.84375C11.0677 3.59375 12.0182 3.80207 12.6953 4.21875C13.3724 4.63543 13.7109 5.42969 13.7109 6.60156C13.7109 7.77344 13.3724 8.5677 12.6953 8.98438Z" fill="#9B9B9B"/>
</svg>
