<svg width="26" height="33" viewBox="0 0 26 33" fill="none" xmlns="http://www.w3.org/2000/svg">
<path d="M3.4 1.00006C2.08077 1.00006 1 2.0809 1 3.40006V29.8C1 31.1193 2.08077 32.2 3.4 32.2H22.6C23.9192 32.2 25 31.1193 25 29.8V7.60006C25 7.59693 25 7.59381 25 7.59068C25 7.58756 25 7.58443 25 7.58131C24.9997 7.56722 24.9989 7.55315 24.9976 7.53912C24.997 7.53286 24.9962 7.52661 24.9953 7.52037C24.9857 7.44011 24.96 7.36262 24.9197 7.29254C24.8795 7.22247 24.8254 7.16125 24.7609 7.11256L18.8992 1.25319C18.8961 1.24924 18.893 1.24534 18.8898 1.24147C18.8331 1.16535 18.7591 1.10378 18.674 1.06181C18.5888 1.01985 18.4949 0.998685 18.4 1.00006H3.4ZM3.4 2.20006H17.8V5.80006C17.8 7.11934 18.8808 8.20006 20.2 8.20006H23.8V29.8C23.8 30.4753 23.2752 31 22.6 31H3.4C2.72481 31 2.2 30.4753 2.2 29.8V3.40006C2.2 2.72494 2.72481 2.20006 3.4 2.20006ZM19 3.0485L22.9515 7.00006H20.2C19.5248 7.00006 19 6.4753 19 5.80006V3.0485ZM6.4 11.8001C6.24087 11.8001 6.08827 11.8633 5.97575 11.9758C5.86323 12.0883 5.80001 12.2409 5.8 12.4001V16.0001V19.6V23.2C5.80001 23.3592 5.86323 23.5118 5.97575 23.6243C6.08827 23.7368 6.24087 23.8 6.4 23.8H12.8594C12.951 23.822 13.0466 23.822 13.1383 23.8H19.6C19.7591 23.8 19.9117 23.7368 20.0242 23.6243C20.1368 23.5118 20.2 23.3592 20.2 23.2V19.6V16.0001V12.4001C20.2 12.2409 20.1368 12.0883 20.0242 11.9758C19.9117 11.8633 19.7591 11.8001 19.6 11.8001H12.9906H6.4ZM7 13.0001H12.4V15.4001H7V13.0001ZM13.6 13.0001H19V15.4001H13.6V13.0001ZM7 16.6001H12.4V19H7V16.6001ZM13.6 16.6001H19V19H13.6V16.6001ZM7 20.2H12.4V22.6H7V20.2ZM13.6 20.2H19V22.6H13.6V20.2Z" fill="#9B9B9B" stroke="white"/>
</svg>
