<svg width="13" height="14" viewBox="0 0 13 14" fill="none" xmlns="http://www.w3.org/2000/svg">
<path d="M3.70563 13.1783H1.13576C0.508497 13.1783 0 12.6698 0 12.0426V1.1465C0 0.519239 0.508497 0.0107422 1.13576 0.0107422H3.70563C4.33289 0.0107422 4.84139 0.519239 4.84139 1.1465V12.0426C4.84139 12.6698 4.33289 13.1783 3.70563 13.1783Z" fill="white"/>
<path d="M11.8638 13.1676H9.29396C8.6667 13.1676 8.1582 12.6591 8.1582 12.0318V1.13576C8.1582 0.508497 8.6667 0 9.29396 0H11.8638C12.4911 0 12.9996 0.508497 12.9996 1.13576V12.0318C12.9996 12.6591 12.4911 13.1676 11.8638 13.1676Z" fill="white"/>
</svg>
