<svg width="18" height="18" viewBox="0 0 18 18" fill="none" xmlns="http://www.w3.org/2000/svg">
<path d="M15.6044 13.7289C15.1751 13.3177 14.7572 12.8946 14.3513 12.4603C14.0103 12.1138 13.805 11.8617 13.805 11.8617L11.2383 10.6361C12.2659 9.47067 12.833 7.97041 12.8333 6.41667C12.8333 2.87925 9.955 0 6.41667 0C2.87833 0 0 2.87925 0 6.41667C0 9.95408 2.87833 12.8333 6.41667 12.8333C8.03275 12.8333 9.50583 12.2283 10.6361 11.2393L11.8617 13.8059C11.8617 13.8059 12.1138 14.0113 12.4603 14.3523C12.815 14.685 13.2816 15.1351 13.7289 15.6053L14.9737 16.8813L15.5274 17.4735L17.4717 15.5293L16.8795 14.9756C16.5321 14.6346 16.0683 14.1818 15.6044 13.7289ZM6.41667 11C3.88942 11 1.83333 8.94392 1.83333 6.41667C1.83333 3.88942 3.88942 1.83333 6.41667 1.83333C8.94392 1.83333 11 3.88942 11 6.41667C11 8.94392 8.94392 11 6.41667 11Z" fill="#A7A7A7"/>
</svg>
