<svg width="17" height="19" viewBox="0 0 17 19" fill="none" xmlns="http://www.w3.org/2000/svg">
<path d="M14.1651 13.2966C13.448 13.2966 12.8061 13.578 12.317 14.0216L5.58204 10.1043C5.63064 9.88723 5.66825 9.66856 5.66825 9.44283C5.66825 9.2171 5.62986 8.99921 5.58204 8.78132L12.2409 4.90087C12.7488 5.37114 13.4205 5.66503 14.1651 5.66503C15.735 5.66503 17 4.40237 17 2.8325C17 1.26577 15.7342 0 14.1651 0C12.5983 0 11.3326 1.26577 11.3326 2.83175C11.3326 3.06059 11.371 3.27536 11.4188 3.49325L4.75985 7.37682C4.25118 6.90423 3.58029 6.61108 2.8349 6.61108C1.26502 6.61108 0 7.8761 0 9.44283C0 11.0096 1.26502 12.2754 2.8349 12.2754C3.57947 12.2754 4.25118 11.9814 4.75906 11.5112L11.4822 15.4371C11.436 15.637 11.407 15.8454 11.407 16.0532C11.407 17.5737 12.6461 18.8105 14.1643 18.8105C15.684 18.8105 16.9239 17.5745 16.9239 16.0532C16.9239 14.5319 15.6848 13.2966 14.1651 13.2966Z" fill="#9B9B9B"/>
</svg>
