<svg width="13" height="13" viewBox="0 0 13 13" fill="none" xmlns="http://www.w3.org/2000/svg">
<path d="M11.058 1.91248C9.99661 0.84254 8.59572 0.177001 7.09685 0.0306028C5.59799 -0.115795 4.09509 0.266124 2.84726 1.11052C1.59942 1.95491 0.684853 3.20886 0.261221 4.65618C-0.162411 6.1035 -0.0685583 7.6535 0.5266 9.03895C0.588631 9.16772 0.608984 9.31267 0.58482 9.45358L0.0155539 12.194C-0.00637828 12.2991 -0.00189969 12.408 0.0285872 12.5109C0.0590741 12.6138 0.114614 12.7075 0.190215 12.7836C0.25219 12.8452 0.325981 12.8936 0.407141 12.9259C0.4883 12.9582 0.575147 12.9737 0.662447 12.9715H0.791826L3.56053 12.4143C3.70125 12.3974 3.84395 12.4175 3.97454 12.4726C5.35792 13.0687 6.90561 13.1627 8.35077 12.7384C9.79593 12.3141 11.048 11.3982 11.8911 10.1485C12.7343 8.89879 13.1156 7.39364 12.9694 5.89254C12.8233 4.39143 12.1587 2.98844 11.0904 1.92544L11.058 1.91248ZM3.89692 7.14072C3.76897 7.14072 3.6439 7.10272 3.53752 7.03153C3.43114 6.96035 3.34823 6.85916 3.29926 6.74078C3.2503 6.6224 3.23749 6.49214 3.26245 6.36647C3.28741 6.24079 3.34902 6.12536 3.43949 6.03475C3.52996 5.94415 3.64523 5.88244 3.77071 5.85745C3.8962 5.83245 4.02627 5.84528 4.14447 5.89431C4.26268 5.94335 4.36371 6.02639 4.43479 6.13293C4.50587 6.23947 4.54381 6.36472 4.54381 6.49286C4.54381 6.66468 4.47565 6.82947 4.35434 6.95096C4.23302 7.07246 4.06848 7.14072 3.89692 7.14072ZM6.48449 7.14072C6.35655 7.14072 6.23148 7.10272 6.12509 7.03153C6.01871 6.96035 5.9358 6.85916 5.88684 6.74078C5.83788 6.6224 5.82507 6.49214 5.85003 6.36647C5.87499 6.24079 5.9366 6.12536 6.02707 6.03475C6.11754 5.94415 6.2328 5.88244 6.35829 5.85745C6.48377 5.83245 6.61384 5.84528 6.73205 5.89431C6.85025 5.94335 6.95128 6.02639 7.02236 6.13293C7.09344 6.23947 7.13138 6.36472 7.13138 6.49286C7.13138 6.66468 7.06323 6.82947 6.94191 6.95096C6.8206 7.07246 6.65606 7.14072 6.48449 7.14072ZM9.07206 7.14072C8.94412 7.14072 8.81905 7.10272 8.71267 7.03153C8.60629 6.96035 8.52337 6.85916 8.47441 6.74078C8.42545 6.6224 8.41264 6.49214 8.4376 6.36647C8.46256 6.24079 8.52417 6.12536 8.61464 6.03475C8.70511 5.94415 8.82038 5.88244 8.94586 5.85745C9.07135 5.83245 9.20142 5.84528 9.31962 5.89431C9.43782 5.94335 9.53886 6.02639 9.60994 6.13293C9.68102 6.23947 9.71896 6.36472 9.71896 6.49286C9.71896 6.66468 9.6508 6.82947 9.52949 6.95096C9.40817 7.07246 9.24363 7.14072 9.07206 7.14072Z" fill="#9B9B9B"/>
</svg>
