<svg width="23" height="23" viewBox="0 0 23 23" fill="none" xmlns="http://www.w3.org/2000/svg">
<path d="M0 11.5C0 5.14873 5.14873 0 11.5 0C17.8513 0 23 5.14873 23 11.5C23 17.8513 17.8513 23 11.5 23C5.14873 23 0 17.8513 0 11.5Z" fill="white"/>
<path d="M10.678 0.0286865C7.93257 0.232742 5.42826 1.36167 3.46191 3.28296C0.875453 5.80582 -0.364775 9.3781 0.0936856 12.9663C0.666099 17.4528 3.83027 21.1894 8.17637 22.5118C11.5366 23.5347 15.2759 22.9279 18.1247 20.9006C21.6254 18.4069 23.446 14.2701 22.9054 10.0353C22.333 5.54876 19.1688 1.81218 14.8227 0.489798C13.5295 0.0949383 12.0216 -0.0720158 10.678 0.0286865ZM13.9376 8.12992C14.6955 8.32338 15.1699 8.60693 15.6151 9.13165C16.108 9.71466 16.3571 10.2182 16.434 10.7853L16.4631 11.0211L16.532 10.9867C16.6433 10.931 17.0064 10.878 17.2502 10.8807C17.4993 10.8833 17.8305 10.9681 18.0929 11.098C18.4798 11.2861 18.9118 11.8771 18.9966 12.3356C19.0363 12.5502 19.031 12.9371 18.986 13.1491C18.925 13.4406 18.7316 13.7852 18.4931 14.0237C18.3235 14.1933 18.2493 14.2463 18.016 14.3576C17.865 14.4291 17.6821 14.506 17.6079 14.5245C17.5019 14.551 16.903 14.559 14.7406 14.5643L12.0084 14.5669L11.9315 14.506L11.8573 14.4477V11.4186C11.8573 9.4417 11.8653 8.38168 11.8838 8.35783C11.913 8.31808 12.0349 8.27303 12.4006 8.15642C12.8749 8.00802 13.4235 8.00007 13.9376 8.12992ZM11.6559 8.58043C11.7142 8.63873 11.7699 12.5873 11.7248 13.6208C11.6851 14.551 11.6771 14.5749 11.4227 14.551C11.2955 14.5404 11.2743 14.4689 11.2372 13.968C11.1948 13.3558 11.2239 8.78449 11.2743 8.64138C11.2928 8.58308 11.3379 8.53273 11.3909 8.50358C11.473 8.45853 11.4836 8.45853 11.5499 8.50093C11.587 8.52478 11.6347 8.56188 11.6559 8.58043ZM10.9828 8.88784C11.0437 8.93289 11.0358 8.76329 11.0914 10.984C11.1126 11.901 11.1232 12.7543 11.1153 12.8788C11.1073 13.0034 11.0888 13.3982 11.0782 13.756C11.0596 14.3152 11.049 14.4185 11.0066 14.4795C10.9483 14.5722 10.8715 14.6014 10.7787 14.5696C10.6939 14.5404 10.6727 14.4821 10.6648 14.2834C10.6489 13.8912 10.5959 13.0643 10.5773 12.9583C10.5561 12.8311 10.6383 9.16345 10.6648 9.01769C10.6913 8.87194 10.8662 8.80039 10.9828 8.88784ZM9.12244 9.41255C9.13304 9.44435 9.15159 10.2314 9.17014 11.1616C9.20724 13.1491 9.17809 14.3761 9.09064 14.4954C9.03499 14.5749 8.84949 14.6067 8.84949 14.5378C8.84949 14.5139 8.83889 14.4954 8.82564 14.4954C8.81504 14.4954 8.80179 14.4318 8.80179 14.3549C8.79914 14.2807 8.77264 13.9097 8.74083 13.536L8.68518 12.855L8.74083 11.3497C8.76999 10.5229 8.79914 9.74116 8.80179 9.61131C8.80709 9.37015 8.82829 9.3198 8.94224 9.29595C9.01114 9.2827 9.10389 9.341 9.12244 9.41255ZM9.72666 9.3887C9.72666 9.39135 9.73196 9.5371 9.73991 9.71201C9.74521 9.88691 9.77436 10.6581 9.80351 11.4266L9.85651 12.8258L9.80351 13.5042C9.77171 13.8779 9.74521 14.2542 9.74256 14.3417C9.73991 14.5113 9.71341 14.551 9.59415 14.5643C9.4113 14.5855 9.3901 14.4662 9.3636 13.1968C9.3424 12.1713 9.39275 9.54505 9.43515 9.44965C9.4749 9.36485 9.5597 9.32775 9.65246 9.35955C9.69221 9.37545 9.72401 9.3887 9.72666 9.3887ZM8.45198 9.447C8.45198 9.4682 8.45993 9.48675 8.47318 9.48675C8.48378 9.48675 8.49438 9.59011 8.49703 9.71996C8.50233 9.84716 8.53413 10.5998 8.57388 11.3921L8.64278 12.8311L8.57388 13.5387C8.53678 13.9256 8.50233 14.294 8.49703 14.3576C8.48113 14.5643 8.34068 14.6358 8.23467 14.4927C8.19492 14.4397 8.18167 14.3046 8.14192 13.6606C8.10217 12.9689 8.10217 12.7596 8.13132 11.5671C8.17637 9.83656 8.19227 9.50265 8.23732 9.44965C8.28502 9.394 8.45198 9.39135 8.45198 9.447ZM10.3971 9.60071C10.4077 9.63251 10.4289 10.3798 10.4448 11.2596C10.4793 13.0325 10.4528 14.294 10.3786 14.4742C10.3441 14.559 10.3309 14.5669 10.2196 14.5696C10.0844 14.5749 10.0685 14.5537 10.0526 14.3231C10.0473 14.2489 10.0182 13.8912 9.98901 13.5228L9.93336 12.855L9.98636 11.4425C10.0182 10.666 10.0447 9.92401 10.0473 9.79681C10.0553 9.54505 10.0765 9.5 10.201 9.48145C10.2832 9.4682 10.3759 9.52385 10.3971 9.60071ZM7.85306 9.79946C7.86101 9.85511 7.88752 10.5733 7.91137 11.3974C7.95377 12.7914 7.95377 12.9451 7.91137 13.6102C7.88752 14.0025 7.86896 14.3576 7.86896 14.3973C7.86896 14.4715 7.76826 14.6014 7.70996 14.6014C7.64901 14.6014 7.59866 14.4954 7.58806 14.347C7.58011 14.2595 7.55361 13.8991 7.52446 13.5413C7.47676 12.9716 7.47411 12.8099 7.49796 12.2031C7.51121 11.8241 7.53771 11.1271 7.55096 10.6554C7.56686 10.1837 7.59071 9.77561 7.60396 9.74911C7.63046 9.70141 7.71526 9.67491 7.79476 9.69346C7.82126 9.70141 7.84511 9.74116 7.85306 9.79946ZM7.20645 10.2977C7.20645 10.3189 7.2144 10.3348 7.22765 10.3348C7.23825 10.3348 7.24885 10.4143 7.2515 10.515C7.25415 10.613 7.2886 11.1748 7.3257 11.7658L7.3946 12.8391L7.3151 13.6685C7.2727 14.127 7.22235 14.5139 7.2091 14.5325C7.18525 14.5616 7.1402 14.5643 7.04745 14.551C6.98914 14.5404 6.96794 14.3682 6.92554 13.6314C6.88579 12.9106 6.88314 12.7251 6.91229 12.0706C6.93084 11.6625 6.95469 11.1139 6.96794 10.8515C6.97854 10.5892 6.99709 10.3533 7.00769 10.3268C7.0448 10.2367 7.20645 10.2129 7.20645 10.2977ZM6.00332 11.2517C6.00597 11.31 6.04837 11.6863 6.09342 12.0891L6.17823 12.8258L6.09607 13.5466C6.05102 13.9442 6.00862 14.3231 6.00597 14.3894C5.99802 14.5007 5.99272 14.5086 5.91587 14.5166C5.83372 14.5245 5.83372 14.5245 5.81782 14.3708C5.80987 14.286 5.77807 13.9018 5.74892 13.5148L5.69591 12.8126L5.75952 11.9911C5.81517 11.2967 5.83107 11.1669 5.87082 11.1377C5.93972 11.0874 5.99802 11.1351 6.00332 11.2517ZM5.40441 11.2093C5.42031 11.2384 5.46006 11.6201 5.49451 12.0573L5.55811 12.8523L5.49451 13.6076C5.46006 14.0237 5.42031 14.3894 5.40441 14.4185C5.36466 14.4874 5.2613 14.4768 5.25335 14.4026C5.2507 14.3735 5.21095 14.0157 5.16325 13.6076L5.0758 12.8656L5.1606 12.0971C5.2083 11.6757 5.2454 11.2967 5.2454 11.257C5.2454 11.1536 5.35671 11.1192 5.40441 11.2093ZM6.59164 11.257C6.64994 11.3153 6.65789 11.4001 6.70559 12.3091C6.73474 12.8364 6.73209 13.0219 6.69234 13.6871C6.64994 14.4185 6.64464 14.4583 6.58634 14.5166C6.51743 14.5855 6.44588 14.5722 6.42468 14.4848C6.41673 14.4556 6.37698 14.0767 6.33193 13.6473L6.25508 12.8656L6.33458 12.0706C6.39818 11.4319 6.42203 11.2702 6.45913 11.2411C6.51478 11.1987 6.53598 11.2013 6.59164 11.257ZM4.77104 11.4398C4.77634 11.522 4.80814 11.7102 4.88765 12.1898C4.938 12.4946 4.9804 12.7808 4.9804 12.8311C4.9804 12.908 4.80284 14.1085 4.77899 14.1959C4.76574 14.2463 4.66769 14.2357 4.65179 14.1827C4.62264 14.0899 4.55639 13.0431 4.55639 12.6668C4.55904 12.4548 4.57494 12.1633 4.59614 12.0176C4.61734 11.8718 4.63589 11.7049 4.63589 11.6466C4.63589 11.5883 4.65444 11.5114 4.67829 11.4796C4.71804 11.4213 4.76574 11.4027 4.77104 11.4398ZM4.25163 12.0096C4.25693 12.0441 4.28873 12.2481 4.31788 12.4628L4.37353 12.855L4.31788 13.218C4.24103 13.7269 4.24103 13.7269 4.19068 13.7269C4.15358 13.7269 4.12973 13.6473 4.06348 13.2896L3.98397 12.8523L4.06083 12.4204C4.10323 12.1845 4.15093 11.9831 4.16683 11.9725C4.21718 11.9407 4.23573 11.9487 4.25163 12.0096Z" fill="#FF3A00"/>
</svg>
