<svg width="27" height="27" viewBox="0 0 27 27" fill="none" xmlns="http://www.w3.org/2000/svg">
<path d="M13.5 25.3652C20.053 25.3652 25.3652 20.053 25.3652 13.5C25.3652 6.94701 20.053 1.63477 13.5 1.63477C6.94701 1.63477 1.63477 6.94701 1.63477 13.5C1.63477 20.053 6.94701 25.3652 13.5 25.3652Z" fill="#4AAEE8"/>
<path d="M13.8985 19.12C13.768 18.9883 13.3085 18.1862 12.8773 17.3376C12.4461 16.4889 12.006 15.6698 11.8992 15.5172C11.7775 15.3433 11.0892 14.9299 10.0541 14.409C8.19212 13.4718 7.94191 13.2707 7.99229 12.752C8.03832 12.2779 8.22707 12.1799 10.8482 11.268C12.0471 10.8509 13.9808 10.1784 15.1454 9.77346C16.31 9.36854 17.392 9.03723 17.5499 9.03723C17.8795 9.03723 18.1891 9.32857 18.1891 9.63866C18.1891 9.75538 17.8006 10.9727 17.3259 12.3439C16.8511 13.715 16.3061 15.2918 16.1149 15.8478C15.4683 17.7273 14.9739 18.9861 14.8088 19.1732C14.5824 19.4298 14.1822 19.4064 13.8985 19.12Z" fill="white"/>
</svg>
