<svg width="23" height="23" viewBox="0 0 23 23" fill="none" xmlns="http://www.w3.org/2000/svg">
<rect width="23" height="23" rx="11.5" fill="#4489C8"/>
<path d="M5.2871 8.24391H7.46784C7.51343 8.24384 7.55796 8.25766 7.5955 8.28353C7.63304 8.3094 7.6618 8.3461 7.67796 8.38873C7.91932 9.01058 8.92166 11.444 9.83882 11.6428C10.5203 11.6428 10.2789 8.40577 9.4129 8.40577C9.18574 8.40577 9.81611 8.00256 9.8587 7.98552C10.6635 7.76492 11.5129 7.76492 12.3177 7.98552C12.7522 8.16725 12.826 8.67552 12.8373 9.10712C12.8487 9.53873 12.3546 11.3787 13.0049 11.5775C13.8567 11.8387 14.9528 9.16675 15.2083 8.51083C15.2249 8.46873 15.2539 8.43264 15.2914 8.4073C15.3289 8.38196 15.3732 8.36856 15.4185 8.36885H17.8462C17.8837 8.36873 17.9207 8.37791 17.9538 8.39556C17.9869 8.41321 18.0151 8.43879 18.036 8.47001C18.0568 8.50122 18.0695 8.53711 18.0731 8.57445C18.0766 8.6118 18.0709 8.64945 18.0564 8.68404C17.5563 9.82488 16.9567 10.9195 16.2646 11.9551C16.2058 12.0406 16.1782 12.1437 16.1865 12.2472C16.1947 12.3506 16.2384 12.448 16.3101 12.523C17.037 13.3011 19.0246 15.5045 17.8888 15.5045H15.4383C15.375 15.5047 15.3124 15.4913 15.2546 15.4654C15.1968 15.4394 15.1452 15.4015 15.1033 15.354C14.7228 14.9338 13.6154 13.7639 13.1156 13.8576C12.701 13.9343 12.6613 14.6385 12.6812 15.0985C12.6874 15.2172 12.6469 15.3336 12.5684 15.4227C12.4898 15.5119 12.3794 15.5668 12.2609 15.5755C11.8265 15.6011 11.233 15.6124 11.1791 15.6096C9.44697 15.4989 8.42191 14.3432 7.44228 13.054C6.41613 11.6873 5.61565 10.165 5.07129 8.5449C5.06017 8.51062 5.05725 8.47421 5.06278 8.43859C5.06832 8.40298 5.08214 8.36917 5.10314 8.33988C5.12414 8.31059 5.15173 8.28664 5.18368 8.26997C5.21564 8.2533 5.25106 8.24438 5.2871 8.24391Z" fill="white"/>
</svg>
