<svg width="23" height="23" viewBox="0 0 23 23" fill="none" xmlns="http://www.w3.org/2000/svg">
<path d="M5.07788 11.3507C5.07788 7.72143 8.02001 4.7793 11.6493 4.7793C15.2786 4.7793 18.2207 7.72143 18.2207 11.3507C18.2207 14.98 15.2786 17.9222 11.6493 17.9222C8.02001 17.9222 5.07788 14.98 5.07788 11.3507Z" fill="white"/>
<path fill-rule="evenodd" clip-rule="evenodd" d="M22.77 6.8684C22.77 6.8684 22.545 5.27223 21.8558 4.56947C20.981 3.6466 20.0007 3.64229 19.5514 3.58874C16.3329 3.35425 11.505 3.35425 11.505 3.35425H11.495C11.495 3.35425 6.66713 3.35425 3.44856 3.58874C2.99862 3.64229 2.01897 3.6466 1.14353 4.56947C0.45425 5.27241 0.23 6.8684 0.23 6.8684C0.23 6.8684 0 8.74326 0 10.6172V12.3747C0 14.2494 0.23 16.1236 0.23 16.1236C0.23 16.1236 0.45425 17.7197 1.14353 18.4225C2.01897 19.3454 3.16825 19.3164 3.68 19.4127C5.52 19.5908 11.5 19.6458 11.5 19.6458C11.5 19.6458 16.3329 19.6386 19.5514 19.4041C20.0007 19.3499 20.981 19.3455 21.8558 18.4227C22.545 17.7197 22.77 16.1237 22.77 16.1237C22.77 16.1237 23 14.2496 23 12.3747V10.6172C23 8.74326 22.77 6.8684 22.77 6.8684ZM9.12525 14.5044L9.12453 7.9963L15.3388 11.2616L9.12525 14.5044Z" fill="#CE1312"/>
</svg>
