<svg width="39" height="39" viewBox="0 0 39 39" fill="none" xmlns="http://www.w3.org/2000/svg">
<rect opacity="0.25" x="1.07556" y="0.5" width="36.9518" height="38" rx="18.4759" stroke="white"/>
<path fill-rule="evenodd" clip-rule="evenodd" d="M16.1456 26H13.2262V17H16.1456V26Z" fill="white"/>
<path fill-rule="evenodd" clip-rule="evenodd" d="M14.6772 15H14.6606C13.7894 15 13.2262 14.333 13.2262 13.4995C13.2262 12.6483 13.8066 12 14.6943 12C15.582 12 16.1287 12.6483 16.1456 13.4995C16.1456 14.333 15.582 15 14.6772 15Z" fill="white"/>
<path fill-rule="evenodd" clip-rule="evenodd" d="M26.8498 25.9998H23.9811V21.2954C23.9811 20.1137 23.566 19.3074 22.5274 19.3074C21.7349 19.3074 21.2628 19.851 21.0554 20.376C20.9796 20.5641 20.961 20.8263 20.961 21.0891V26H18.0918C18.0918 26 18.1296 18.0318 18.0918 17.2067H20.961V18.4522C21.3417 17.8535 22.0237 17 23.5468 17C25.4346 17 26.8499 18.2571 26.8499 20.958L26.8498 25.9998Z" fill="white"/>
</svg>
