<svg width="39" height="39" viewBox="0 0 39 39" fill="none" xmlns="http://www.w3.org/2000/svg">
<rect opacity="0.25" x="0.651123" y="0.5" width="36.9518" height="38" rx="18.4759" stroke="white"/>
<path fill-rule="evenodd" clip-rule="evenodd" d="M18.9443 16.9262L18.9718 17.402L18.5147 17.3437C16.8511 17.1204 15.3977 16.363 14.1637 15.091L13.5604 14.4599L13.405 14.926C13.076 15.9649 13.2862 17.0621 13.9718 17.8001C14.3374 18.2079 14.2551 18.2661 13.6244 18.0234C13.405 17.9457 13.2131 17.8874 13.1948 17.9166C13.1308 17.9845 13.3502 18.8681 13.5239 19.2177C13.7615 19.7032 14.246 20.179 14.7762 20.4605L15.2241 20.6839L14.6939 20.6936C14.182 20.6936 14.1637 20.7033 14.2186 20.9072C14.4014 21.5383 15.1235 22.2083 15.9279 22.4996L16.4946 22.7035L16.001 23.0142C15.2698 23.4609 14.4105 23.7133 13.5513 23.7328C13.14 23.7425 12.8018 23.7813 12.8018 23.8104C12.8018 23.9075 13.9169 24.4513 14.5659 24.6649C16.5129 25.296 18.8255 25.0242 20.5623 23.9464C21.7963 23.1793 23.0303 21.6549 23.6061 20.179C23.9169 19.3925 24.2277 17.9554 24.2277 17.266C24.2277 16.8194 24.2551 16.7611 24.767 16.2271C25.0687 15.9164 25.352 15.5765 25.4069 15.4794C25.4983 15.2949 25.4891 15.2949 25.023 15.46C24.246 15.7513 24.1363 15.7124 24.5202 15.2755C24.8036 14.9648 25.1418 14.4016 25.1418 14.2366C25.1418 14.2074 25.0047 14.256 24.8493 14.3434C24.6847 14.4405 24.3191 14.5861 24.0449 14.6735L23.5513 14.8386L23.1034 14.5181C22.8566 14.3434 22.5092 14.1492 22.3264 14.0909C21.8603 13.955 21.1473 13.9744 20.7268 14.1297C19.5842 14.5667 18.8621 15.693 18.9443 16.9262Z" fill="white"/>
</svg>
